<svg id="fi-rr-info_2" data-name="fi-rr-info 2" xmlns="http://www.w3.org/2000/svg" width="24" height="24" viewBox="0 0 24 24">
  <path id="Vector" d="M12,0a12.013,12.013,0,1,0,8.481,3.519A12,12,0,0,0,12,0Zm0,22a10.011,10.011,0,1,1,7.068-2.932A10,10,0,0,1,12,22Z" transform="translate(0)" fill="#fff"/>
  <path id="Vector-2" data-name="Vector" d="M2,0H1A1,1,0,0,0,1,2H2V8A1,1,0,1,0,4,8V2A2,2,0,0,0,2,0Z" transform="translate(10 10)" fill="#fff"/>
  <path id="Vector-3" data-name="Vector" d="M3,1.5A1.5,1.5,0,1,1,1.5,0,1.5,1.5,0,0,1,3,1.5Z" transform="translate(10.5 5)" fill="#fff"/>
</svg>
