<svg xmlns="http://www.w3.org/2000/svg" width="20.001" height="20" viewBox="0 0 20.001 20">
  <g id="Group_65" data-name="Group 65" transform="translate(-122 -1432)">
    <path id="Path_48" data-name="Path 48" d="M132.007,48.667a4,4,0,1,1,2.828-1.172A4,4,0,0,1,132.007,48.667Zm0-6.667a2.668,2.668,0,1,0,1.885.781A2.668,2.668,0,0,0,132.007,42Z" transform="translate(0 1394)" fill="#45495e"/>
    <path id="Path_49" data-name="Path 49" d="M132.007,58a10,10,0,0,1-7.727-3.66l-.347-.427.347-.42a10,10,0,0,1,15.454,0l.346.42-.346.427A10,10,0,0,1,132.007,58Zm-6.327-4.08a8.667,8.667,0,0,0,12.667,0,8.667,8.667,0,0,0-12.667,0Z" transform="translate(0 1394)" fill="#45495e"/>
    <path id="Path_50" data-name="Path 50" d="M132.007,58a10,10,0,1,1,4.274-.963A10,10,0,0,1,132.007,58Zm0-18.667a8.668,8.668,0,1,0,6.128,2.538A8.667,8.667,0,0,0,132.007,39.333Z" transform="translate(0 1394)" fill="#45495e"/>
  </g>
</svg>
