<svg xmlns="http://www.w3.org/2000/svg" width="19.257" height="19" viewBox="0 0 19.257 19">
  <g id="shopping-basket_1_" data-name="shopping-basket (1)" transform="translate(0 -3.41)">
    <path id="Path_35" data-name="Path 35" d="M19.257,7.94a.564.564,0,0,0-.564-.564H14.511L12.384,3.692A.564.564,0,0,0,11.9,3.41H7.362a.564.564,0,0,0-.489.282L4.746,7.376H.565A.564.564,0,0,0,0,7.94v2.428a.628.628,0,0,0,.027.213l2.407,7.487a.564.564,0,0,0,.537.391H5.15a4.514,4.514,0,0,0,8.958,0h2.178a.564.564,0,0,0,.537-.391l2.407-7.487a.628.628,0,0,0,.027-.213Zm-1.5,3.473-4.225,4.225a4.545,4.545,0,0,0-.821-1.033l3.632-3.632h1.572l-.135.419-.023.021Zm-3.01-.44L11.79,13.934a4.481,4.481,0,0,0-1.336-.476l2.485-2.485h1.812ZM7.688,4.538H11.57l1.638,2.838H6.049ZM18.128,8.5v1.34h-17V8.5ZM2.49,14.555l3.582-3.582H7.894l-4.96,4.96Zm1.987-3.582L2.1,13.348l-.763-2.375ZM3.321,17.141l6.168-6.168h1.854L8.87,13.446A4.524,4.524,0,0,0,5.15,17.332H3.383Zm6.307,4.141A3.386,3.386,0,1,1,13.014,17.9,3.39,3.39,0,0,1,9.629,21.282Zm6.246-3.95H14.107A4.483,4.483,0,0,0,14,16.769l3.029-3.029Z" transform="translate(0 0)" fill="#fff"/>
    <path id="Path_36" data-name="Path 36" d="M216.395,331.247l-.033.034v-1.987a.564.564,0,1,0-1.128,0v1.992l-.039-.04a.564.564,0,1,0-.8.791l1.006,1.023a.564.564,0,0,0,.4.169h0a.564.564,0,0,0,.4-.17l1-1.023a.564.564,0,1,0-.807-.789Z" transform="translate(-206.17 -313.085)" fill="#fff"/>
  </g>
</svg>
