<svg xmlns="http://www.w3.org/2000/svg" width="17.857" height="12.374" viewBox="0 0 17.857 12.374">
  <g id="email_2_1" data-name="email (2) 1" transform="translate(-1.571 -4.06)">
    <path id="Vector" d="M16.1,12.374H1.758A1.76,1.76,0,0,1,0,10.615V1.758A1.76,1.76,0,0,1,1.758,0H16.1a1.76,1.76,0,0,1,1.758,1.758v8.857A1.76,1.76,0,0,1,16.1,12.374ZM1.758.672A1.087,1.087,0,0,0,.672,1.758v8.857A1.087,1.087,0,0,0,1.758,11.7H16.1a1.087,1.087,0,0,0,1.086-1.086V1.758A1.087,1.087,0,0,0,16.1.672Z" transform="translate(1.571 4.06)"/>
    <path id="Vector-2" data-name="Vector" d="M8.32,7.736A.336.336,0,0,1,8.1,7.652L0,.5.445,0,8.32,6.953,16.2,0l.445.5-8.1,7.148a.335.335,0,0,1-.223.083Z" transform="translate(2.18 4.488)"/>
    <path id="Vector-3" data-name="Vector" d="M0,0H8.247V.672H0Z" transform="matrix(0.66, -0.752, 0.752, 0.66, 1.997, 15.379)"/>
    <path id="Vector-4" data-name="Vector" d="M0,0H.672V8.247H0Z" transform="matrix(0.752, -0.66, 0.66, 0.752, 13.075, 9.617)"/>
  </g>
</svg>
