<svg xmlns="http://www.w3.org/2000/svg" width="41.167" height="28.252" viewBox="0 0 41.167 28.252">
  <g id="fast-delivery_3_" data-name="fast-delivery (3)" transform="translate(0 -0.039)">
    <path id="Path_20933" data-name="Path 20933" d="M41.06,17.211l-2.084-3.188a4.973,4.973,0,0,0-4.183-2.25H29.4v-3.1a3.437,3.437,0,0,0-3.433-3.433H15.883a6.4,6.4,0,1,0-9.834,6.534H.653a.654.654,0,0,0,0,1.307H7.188v1.307H4.574a.653.653,0,0,0,0,1.307H7.188V17H.653a.654.654,0,0,0,0,1.307H7.188V21.2a3.277,3.277,0,0,0-1.96,3v.645a.654.654,0,0,0,.654.654h5.8a3.609,3.609,0,0,0,7.032,0H31.28a3.609,3.609,0,0,0,7.032,0h2.2a.653.653,0,0,0,.653-.654V17.568a.654.654,0,0,0-.106-.357ZM4.5,6.444a5.1,5.1,0,1,1,5.1,5.1,5.1,5.1,0,0,1-5.1-5.1Zm4,11.864H9.8A.654.654,0,0,0,9.8,17H8.495V15.693h4.574a.653.653,0,0,0,0-1.307H8.495V13.08h8.495a.654.654,0,0,0,0-1.307H13.142A6.4,6.4,0,0,0,16,6.545h9.976A2.129,2.129,0,0,1,28.1,8.671V20.921H8.495Zm19.6,5.881h-9.33a3.6,3.6,0,0,0-.929-1.96H28.1ZM8.5,22.228h4.043a3.6,3.6,0,0,0-.928,1.96H6.534A1.971,1.971,0,0,1,8.5,22.228Zm6.69,4.756A2.305,2.305,0,1,1,17.5,24.678a2.308,2.308,0,0,1-2.305,2.305Zm19.6,0A2.305,2.305,0,1,1,37.1,24.678,2.308,2.308,0,0,1,34.8,26.984Zm5.064-2.8H38.371a3.608,3.608,0,0,0-7.151,0H29.4V13.08h5.389a3.672,3.672,0,0,1,3.089,1.658l1.977,3.026Zm0,0" fill="#fff"/>
    <path id="Path_20934" data-name="Path 20934" d="M354.49,247.354a1.069,1.069,0,1,1-1.069-1.069A1.069,1.069,0,0,1,354.49,247.354Zm0,0" transform="translate(-318.625 -222.676)" fill="#fff"/>
    <path id="Path_20935" data-name="Path 20935" d="M149.693,247.354a1.069,1.069,0,1,1-1.069-1.069A1.069,1.069,0,0,1,149.693,247.354Zm0,0" transform="translate(-133.431 -222.676)" fill="#fff"/>
    <path id="Path_20936" data-name="Path 20936" d="M83.095,33.774V30.915a.653.653,0,0,0-1.307,0v2.646l-1.334,1.83a.653.653,0,1,0,1.056.769l1.459-2a.654.654,0,0,0,.125-.385Zm0,0" transform="translate(-72.64 -27.33)" fill="#fff"/>
    <path id="Path_20937" data-name="Path 20937" d="M343.236,143.1h-1.25a.653.653,0,0,0-.654.654v4.574a.653.653,0,0,0,.654.654h4.4a1.135,1.135,0,0,0,.986-1.7l-1.526-2.671A3.01,3.01,0,0,0,343.236,143.1Zm-.6,4.574v-3.267h.6a1.7,1.7,0,0,1,1.473.854l1.379,2.413Zm0,0" transform="translate(-308.66 -129.372)" fill="#fff"/>
  </g>
</svg>
