<svg xmlns="http://www.w3.org/2000/svg" width="23.5" height="19.739" viewBox="0 0 23.5 19.739">
  <g id="Group_55547" data-name="Group 55547" transform="translate(-151.401 -592)">
    <path id="Path_16822" data-name="Path 16822" d="M19.868,14.262a7.309,7.309,0,0,0-8.114.963,7.339,7.339,0,0,0-8.121-.963A6.733,6.733,0,0,0,0,20.191a6.308,6.308,0,0,0,.325,2.014c1.1,4.744,8.131,10.986,11.429,10.986s10.32-6.243,11.4-10.905a6.54,6.54,0,0,0,.349-2.1A6.73,6.73,0,0,0,19.868,14.262Zm1.683,7.57c-1.02,4.415-7.663,9.695-9.8,9.695-2.375,0-8.845-5.531-9.828-9.775a4.79,4.79,0,0,1-.26-1.56,5.072,5.072,0,0,1,2.745-4.46A5.5,5.5,0,0,1,7,15.092a5.438,5.438,0,0,1,4.123,1.86l.635.727.626-.727a5.618,5.618,0,0,1,6.706-1.22,5.073,5.073,0,0,1,2.746,4.46A5.144,5.144,0,0,1,21.551,21.832Zm-.65-1.641a4.062,4.062,0,0,1-.219,1.3.409.409,0,0,1-.395.279.4.4,0,0,1-.133-.018.416.416,0,0,1-.26-.528,3.245,3.245,0,0,0,.18-1.036A3.389,3.389,0,0,0,18.233,17.2a3.642,3.642,0,0,0-1.733-.435.413.413,0,1,1,0-.827,4.468,4.468,0,0,1,2.123.528,4.3,4.3,0,0,1,2.05,2.37A4.057,4.057,0,0,1,20.9,20.191Z" transform="translate(151.401 578.548)" fill="#45495e"/>
    <path id="Path_16824" data-name="Path 16824" d="M118.845,16.667C116.268,15.29,121.085,17.854,118.845,16.667Zm1.033,5.929a4.062,4.062,0,0,1-.219,1.3.409.409,0,0,1-.395.279.4.4,0,0,1-.133-.018.416.416,0,0,1-.26-.528,3.245,3.245,0,0,0,.18-1.036,3.389,3.389,0,0,0-1.841-2.986,3.642,3.642,0,0,0-1.733-.435.413.413,0,1,1,0-.827,4.468,4.468,0,0,1,2.123.528,4.3,4.3,0,0,1,2.05,2.37A4.057,4.057,0,0,1,119.878,22.6Z" transform="translate(52.499 576.171)" fill="#f27e16"/>
  </g>
</svg>
