<svg xmlns="http://www.w3.org/2000/svg" width="46.006" height="46" viewBox="0 0 46.006 46">
  <g id="free-delivery_1_1" data-name="free-delivery (1) 1" transform="translate(0.006)">
    <g id="Group">
      <path id="Vector" d="M0,.247C.021.165.042.083.062,0,.042.083.021.165,0,.247Z" transform="translate(45.287 28.446)" fill="#afe6ff"/>
      <path id="Vector-2" data-name="Vector" d="M15.254,0A22.547,22.547,0,0,0,.936,5c-.243.189-.412.338-.412.338S0,8.963,0,10.544c0,12.7,10.712,23,23.415,23,5.413,0,10.387-2.52,14.316-5.65A22.5,22.5,0,0,0,38.254,23,23,23,0,0,0,15.254,0Z" transform="translate(7.746)" fill="#ffb332"/>
      <path id="Vector-3" data-name="Vector" d="M35.754,0a23,23,0,0,1-6.416.908A23.01,23.01,0,0,1,22.922,0H0A23.006,23.006,0,0,0,21.179,14.015,23,23,0,0,0,42.353,0Z" transform="translate(1.821 31.985)" fill="#f27e16"/>
    </g>
    <g id="Group-2" data-name="Group">
      <path id="Vector-4" data-name="Vector" d="M3.787,3.742H24.465V0S-.075.348,0,.519q.29.662.613,1.288l.01.02A3.555,3.555,0,0,0,3.787,3.742Z" transform="translate(1.927 31.675)" fill="#ffcf2d"/>
      <path id="Vector-5" data-name="Vector" d="M2.025,0A23.173,23.173,0,0,0,0,1.911V22.535H20.905V0Z" transform="translate(6.24 5.293)" fill="#ececec"/>
      <path id="Vector-6" data-name="Vector" d="M13.565,15.246a7.2,7.2,0,0,1-7.2-7.2V0a23.021,23.021,0,0,0-6,20.016l26.778.741V15.246Z" transform="translate(-0.006 7.071)" fill="#fff"/>
      <g id="Group-3" data-name="Group">
        <g id="Group-4" data-name="Group">
          <path id="Vector-7" data-name="Vector" d="M11.069,6.078a6.083,6.083,0,0,1-7.622,5.88C.838,11.275,0,8.785,0,5.961,0,2.6,1.634,0,4.991,0A6.078,6.078,0,0,1,11.069,6.078Z" transform="translate(23.358 30.264)" fill="#ffcf2d"/>
        </g>
        <g id="Group-5" data-name="Group">
          <path id="Vector-8" data-name="Vector" d="M6.078,5.264V1.237A1.232,1.232,0,0,0,4.544.04,6.08,6.08,0,0,0,4.535,11.8a1.239,1.239,0,0,0,1.544-1.2,1.255,1.255,0,0,1,.8-1.16,2.165,2.165,0,0,0-.8-4.175Z" transform="translate(22.27 30.42)" fill="#dfae06"/>
        </g>
        <g id="Group-6" data-name="Group">
          <path id="Vector-9" data-name="Vector" d="M4.329,2.165A2.165,2.165,0,1,1,2.165,0,2.165,2.165,0,0,1,4.329,2.165Z" transform="translate(26.184 34.178)" fill="#e4f6ff"/>
        </g>
      </g>
      <g id="Group-7" data-name="Group">
        <path id="Vector-10" data-name="Vector" d="M0,0V10.013c0,.029,0,.058,0,.087a25.583,25.583,0,0,0,2.121,1.64A6.079,6.079,0,0,0,6,6.076,6.077,6.077,0,0,0,0,0Z" transform="translate(7.985 30.267)" fill="#ffcf2d"/>
        <path id="Vector-11" data-name="Vector" d="M5.5,10.033a1.8,1.8,0,0,1,.648-.594,2.165,2.165,0,0,0-.8-4.175V1.237A1.232,1.232,0,0,0,3.807.04,5.954,5.954,0,0,0,0,3.088a22.269,22.269,0,0,0,5.5,6.945Z" transform="translate(2.561 30.42)" fill="#dfae06"/>
        <g id="Group-8" data-name="Group">
          <path id="Vector-12" data-name="Vector" d="M4.329,2.165A2.165,2.165,0,1,1,2.165,0,2.165,2.165,0,0,1,4.329,2.165Z" transform="translate(5.738 34.178)" fill="#e4f6ff"/>
        </g>
      </g>
      <g id="Group-9" data-name="Group">
        <path id="Vector-13" data-name="Vector" d="M9.646,0H0V12.837H15.185Z" transform="translate(27.78 6.486)" fill="#e4f6ff"/>
      </g>
      <g id="Group-10" data-name="Group">
        <path id="Vector-14" data-name="Vector" d="M4.019,8.888V0H0V12.837H15.185l-.993-2.3H5.667A1.648,1.648,0,0,1,4.019,8.888Z" transform="translate(27.78 6.486)" fill="#d3effb"/>
      </g>
      <g id="Group-11" data-name="Group">
        <path id="Vector-15" data-name="Vector" d="M0,8.382,6.534,1.848,5.736,0H3.878L0,3.878Z" transform="translate(31.69 6.486)" fill="#fff"/>
      </g>
      <g id="Group-12" data-name="Group">
        <path id="Vector-16" data-name="Vector" d="M4.019,0,0,4.019v4.5L4.019,4.5Z" transform="translate(27.78 10.255)" fill="#e4f6ff"/>
      </g>
      <g id="Group-13" data-name="Group">
        <path id="Vector-17" data-name="Vector" d="M1.992,7.709,7.813,1.887,7,0,0,7v.709Z" transform="translate(31.69 9.414)" fill="#fff"/>
      </g>
      <g id="Group-14" data-name="Group">
        <path id="Vector-18" data-name="Vector" d="M2.7,3.2,5,.9H4.666A1.646,1.646,0,0,1,3.2,0L0,3.2H2.7Z" transform="translate(28.78 16.123)" fill="#e4f6ff"/>
      </g>
      <path id="Vector-19" data-name="Vector" d="M12.232,1.838A3.044,3.044,0,0,0,9.437,0H0V26.9H1.745a8.732,8.732,0,0,1,8.271,5.933l.134.4h7.856V16.319a5.309,5.309,0,0,0-.434-2.1Zm-10.1.29H9.5a.815.815,0,0,1,.748.492l4.028,9.336a.815.815,0,0,1-.748,1.138H2.128Z" transform="translate(26.369 5.293)" fill="#ffcf2d"/>
      <g id="Group-15" data-name="Group">
        <path id="Vector-20" data-name="Vector" d="M10.48,14.158a1.064,1.064,0,0,0-1.064-1.064H3.09a.962.962,0,0,1-.962-.962V3.09a.962.962,0,0,1,.962-.962H4.365A1.064,1.064,0,1,0,4.365,0H0V15.222H9.415a1.064,1.064,0,0,0,1.064-1.064Z" transform="translate(26.369 5.293)" fill="#dfae06"/>
      </g>
      <g id="Group-16" data-name="Group">
        <path id="Vector-21" data-name="Vector" d="M5.495,0H0V11.678H1.745a8.713,8.713,0,0,1,3.75.847Z" transform="translate(26.369 20.516)" fill="#ffcf2d"/>
      </g>
      <g id="Group-17" data-name="Group">
        <path id="Vector-22" data-name="Vector" d="M8.953,4.128H.889A.889.889,0,0,1,0,3.239V.889A.889.889,0,0,1,.889,0H8.953a.889.889,0,0,1,.889.889v2.35a.889.889,0,0,1-.889.889Z" transform="translate(35.549 36.225)" fill="#dfae06"/>
      </g>
      <path id="Vector-23" data-name="Vector" d="M1.451,4.852c.036.085.074.169.111.254H26V0H0A22.828,22.828,0,0,0,1.451,4.852Z" transform="translate(0.365 27.088)" fill="#dfae06"/>
      <g id="Group-18" data-name="Group">
        <path id="Vector-24" data-name="Vector" d="M2.826,1.193H.6A.6.6,0,1,1,.6,0H2.826a.6.6,0,1,1,0,1.193Z" transform="translate(37.68 37.374)" fill="#ffe65a"/>
      </g>
      <g id="Group-19" data-name="Group">
        <path id="Vector-25" data-name="Vector" d="M4.837,1.279H0A1.279,1.279,0,0,1,1.279,0H3.558A1.279,1.279,0,0,1,4.837,1.279Z" transform="translate(29.981 20.516)" fill="#dfae06"/>
      </g>
      <g id="Group-20" data-name="Group">
        <path id="Vector-26" data-name="Vector" d="M0,3.816H0V0H0A1.908,1.908,0,0,1,1.911,1.908,1.908,1.908,0,0,1,0,3.816Z" transform="translate(44.002 27.088)" fill="#eab14d"/>
      </g>
      <g id="Group-21" data-name="Group">
        <path id="Vector-27" data-name="Vector" d="M.873,5.448A.873.873,0,0,1,0,4.575V.873a.873.873,0,0,1,1.747,0v3.7A.873.873,0,0,1,.873,5.448Z" transform="translate(43.129 26.184)" fill="#d3effb"/>
      </g>
      <g id="Group-22" data-name="Group">
        <path id="Vector-28" data-name="Vector" d="M.918,7.413A.918.918,0,0,1,0,6.5V.918A.918.918,0,0,1,.918,0Z" transform="translate(40.199 12.475)" fill="#e4f6ff"/>
      </g>
      <g id="Group-23" data-name="Group">
        <path id="Vector-29" data-name="Vector" d="M1.427,8.6H0V0H1.427A1.019,1.019,0,0,1,2.446,1.019V7.582A1.019,1.019,0,0,1,1.427,8.6Z" transform="translate(40.715 11.914)" fill="#dfae06"/>
      </g>
      <g id="Group-24" data-name="Group">
        <path id="Vector-30" data-name="Vector" d="M0,.436C0,.145.309,0,.618,0H3.77c.3,0,.427.318.427.609,0,.336-.154.627-.427.627H1.417V2.771H2.789c.272,0,.427.263.427.554,0,.245-.127.536-.427.536H1.417V6.2c0,.291-.354.436-.709.436S0,6.5,0,6.2V.436Z" transform="translate(3.561 14.253)" fill="#fff"/>
        <path id="Vector-31" data-name="Vector" d="M0,.427A.423.423,0,0,1,.436,0H2.317C3.561,0,4.552.463,4.552,1.944a1.79,1.79,0,0,1-1.1,1.844L4.561,5.8a.3.3,0,0,1,.045.163.923.923,0,0,1-.89.736.484.484,0,0,1-.454-.263L2.017,4.015h-.6V6.2c0,.291-.354.436-.709.436S0,6.5,0,6.2Zm1.417.808v1.69h.9c.509,0,.818-.209.818-.845s-.309-.845-.818-.845Z" transform="translate(8.24 14.252)" fill="#fff"/>
        <path id="Vector-32" data-name="Vector" d="M1.417,2.771H2.78c.273,0,.427.263.427.554,0,.245-.127.536-.427.536H1.417V5.406H3.852c.273,0,.427.291.427.627,0,.291-.127.609-.427.609H.618C.309,6.641,0,6.5,0,6.2V.436C0,.145.309,0,.618,0H3.852c.3,0,.427.318.427.609,0,.336-.154.627-.427.627H1.417Z" transform="translate(13.546 14.252)" fill="#fff"/>
        <path id="Vector-33" data-name="Vector" d="M1.417,2.771H2.78c.273,0,.427.263.427.554,0,.245-.127.536-.427.536H1.417V5.406H3.852c.273,0,.427.291.427.627,0,.291-.127.609-.427.609H.618C.309,6.641,0,6.5,0,6.2V.436C0,.145.309,0,.618,0H3.852c.3,0,.427.318.427.609,0,.336-.154.627-.427.627H1.417Z" transform="translate(18.443 14.252)" fill="#fff"/>
      </g>
      <g id="Group-25" data-name="Group">
        <path id="Vector-34" data-name="Vector" d="M0,.436C0,.145.309,0,.618,0H3.77c.3,0,.427.318.427.609,0,.336-.154.627-.427.627H1.417V2.771H2.789c.272,0,.427.263.427.554,0,.245-.127.536-.427.536H1.417V6.2c0,.291-.354.436-.709.436S0,6.5,0,6.2V.436Z" transform="translate(3.561 12.883)" fill="#f27e16"/>
        <path id="Vector-35" data-name="Vector" d="M0,.427A.423.423,0,0,1,.436,0H2.317C3.561,0,4.552.463,4.552,1.944a1.79,1.79,0,0,1-1.1,1.844L4.561,5.8a.3.3,0,0,1,.045.163.923.923,0,0,1-.89.736.484.484,0,0,1-.454-.263L2.017,4.015h-.6V6.2c0,.291-.354.436-.709.436S0,6.5,0,6.2Zm1.417.809v1.69h.9c.509,0,.818-.209.818-.845s-.309-.845-.818-.845Z" transform="translate(8.24 12.883)" fill="#f27e16"/>
        <path id="Vector-36" data-name="Vector" d="M1.417,2.771H2.78c.273,0,.427.263.427.554,0,.245-.127.536-.427.536H1.417V5.406H3.852c.273,0,.427.291.427.627,0,.291-.127.609-.427.609H.618C.309,6.641,0,6.5,0,6.2V.436C0,.145.309,0,.618,0H3.852c.3,0,.427.318.427.609,0,.336-.154.627-.427.627H1.417Z" transform="translate(13.546 12.882)" fill="#f27e16"/>
        <path id="Vector-37" data-name="Vector" d="M1.417,2.771H2.78c.273,0,.427.263.427.554,0,.245-.127.536-.427.536H1.417V5.406H3.852c.273,0,.427.291.427.627,0,.291-.127.609-.427.609H.618C.309,6.641,0,6.5,0,6.2V.436C0,.145.309,0,.618,0H3.852c.3,0,.427.318.427.609,0,.336-.154.627-.427.627H1.417Z" transform="translate(18.443 12.882)" fill="#f27e16"/>
      </g>
    </g>
  </g>
</svg>
