<svg xmlns="http://www.w3.org/2000/svg" width="19.375" height="19.575" viewBox="0 0 19.375 19.575">
  <g id="Group_64" data-name="Group 64" transform="translate(-360.156 -1432.157)">
    <path id="Path_38" data-name="Path 38" d="M377.811,42.657l-6.845-3.714a2.348,2.348,0,0,0-2.244,0l-6.845,3.714a2.352,2.352,0,0,0-1.221,2.067V54.883a2.349,2.349,0,0,0,2.35,2.349h13.682a2.35,2.35,0,0,0,2.343-2.349V44.724a2.349,2.349,0,0,0-1.22-2.067Zm-4.1,9.188a3.938,3.938,0,0,1-7.731,0,.659.659,0,0,1,.154-.529.666.666,0,0,1,1.159.319,2.625,2.625,0,0,0,5.138,0,.657.657,0,0,1,.657-.545.657.657,0,0,1,.623.735Z" transform="translate(0 1394)" fill="none" stroke="#45495e" stroke-width="1"/>
  </g>
</svg>
