<svg xmlns="http://www.w3.org/2000/svg" width="20.5" height="24.235" viewBox="0 0 20.5 24.235">
  <g id="location_17_" data-name="location (17)" transform="translate(-39.451)">
    <g id="Group_55544" data-name="Group 55544" transform="translate(39.451)">
      <g id="Group_55543" data-name="Group 55543" transform="translate(0)">
        <path id="Path_16818" data-name="Path 16818" d="M56.949,3a10.25,10.25,0,0,0-17.5,7.248c0,5.539,5.237,10.145,8.05,12.62.391.344.729.641,1,.892a1.766,1.766,0,0,0,2.4,0c.269-.251.607-.548,1-.892,2.813-2.475,8.05-7.082,8.05-12.62A10.183,10.183,0,0,0,56.949,3ZM50.963,21.8c-.4.351-.745.655-1.029.921a.343.343,0,0,1-.466,0c-.284-.266-.629-.569-1.029-.921-2.645-2.327-7.568-6.658-7.568-11.554a8.83,8.83,0,0,1,17.661,0C58.531,15.147,53.608,19.478,50.963,21.8Z" transform="translate(-39.451)" fill="#45495e"/>
      </g>
    </g>
    <g id="Group_55546" data-name="Group 55546" transform="translate(45.184 5.346)">
      <g id="Group_55545" data-name="Group 55545">
        <path id="Path_16819" data-name="Path 16819" d="M165.087,112.938a4.517,4.517,0,1,0,4.517,4.517A4.522,4.522,0,0,0,165.087,112.938Zm0,7.614a3.1,3.1,0,1,1,3.1-3.1A3.1,3.1,0,0,1,165.087,120.552Z" transform="translate(-160.57 -112.938)" fill="#f27e16"/>
      </g>
    </g>
  </g>
</svg>
