<svg id="fi-rr-sign-in_1" data-name="fi-rr-sign-in 1" xmlns="http://www.w3.org/2000/svg" width="19" height="19" viewBox="0 0 19 19">
  <path id="Vector" d="M5.542,17.417H3.958a2.375,2.375,0,0,1-2.375-2.375V3.958A2.375,2.375,0,0,1,3.958,1.583H5.542A.792.792,0,0,0,5.542,0H3.958A3.963,3.963,0,0,0,0,3.958V15.042A3.963,3.963,0,0,0,3.958,19H5.542a.792.792,0,0,0,0-1.583Z" transform="translate(0 0)" fill="#45495e"/>
  <path id="Vector-2" data-name="Vector" d="M4.324.242.693,3.872a2.381,2.381,0,0,0,0,3.358l3.631,3.631A.792.792,0,1,0,5.443,9.742l-3.4-3.4h12.2a.792.792,0,1,0,0-1.583H2.045l3.4-3.4A.792.792,0,1,0,4.324.242Z" transform="translate(3.958 3.949)" fill="#f27e16"/>
</svg>
