<svg xmlns="http://www.w3.org/2000/svg" width="13.125" height="18.375" viewBox="0 0 13.125 18.375">
  <g id="unlock_1" data-name="unlock 1" transform="translate(-3.938 -1.313)">
    <g id="_13-Unlock" data-name="13-Unlock">
      <path id="Vector" d="M11.156,6.563H3.281V4.4A3.091,3.091,0,0,1,6.372,1.313h.381A3.091,3.091,0,0,1,9.844,4.4a.656.656,0,1,0,1.313,0A4.41,4.41,0,0,0,6.753,0H6.372a4.41,4.41,0,0,0-4.4,4.4V6.563A1.969,1.969,0,0,0,0,8.531v6.1a3.747,3.747,0,0,0,3.741,3.741H9.384a3.747,3.747,0,0,0,3.741-3.741v-6.1a1.969,1.969,0,0,0-1.969-1.969Zm.656,8.072a2.428,2.428,0,0,1-2.428,2.428H3.741a2.428,2.428,0,0,1-2.428-2.428v-6.1a.656.656,0,0,1,.656-.656h9.188a.656.656,0,0,1,.656.656ZM7.219,12.285v2.153a.656.656,0,1,1-1.312,0V12.285a1.313,1.313,0,1,1,1.313,0Z" transform="translate(3.938 1.313)"/>
    </g>
  </g>
</svg>
