<svg xmlns="http://www.w3.org/2000/svg" width="42.538" height="42.538" viewBox="0 0 42.538 42.538">
  <g id="new_5_" data-name="new (5)" transform="translate(0 15.966) rotate(-31)">
    <path id="Path_28" data-name="Path 28" d="M15.5,31a.908.908,0,0,1-.454-.122L11.87,29.045H8.2a.908.908,0,0,1-.787-.454L5.584,25.416,2.409,23.582a.908.908,0,0,1-.454-.787V19.13L.121,15.954a.908.908,0,0,1,0-.908L1.955,11.87V8.2a.908.908,0,0,1,.454-.787L5.584,5.584,7.417,2.409A.908.908,0,0,1,8.2,1.955H11.87L15.046.122a.908.908,0,0,1,.908,0l3.175,1.833H22.8a.908.908,0,0,1,.787.454l1.833,3.175,3.175,1.833a.908.908,0,0,1,.454.787V11.87l1.833,3.176a.908.908,0,0,1,0,.908L29.045,19.13V22.8a.908.908,0,0,1-.454.787l-3.175,1.833-1.833,3.175a.908.908,0,0,1-.787.454H19.129l-3.175,1.833A.907.907,0,0,1,15.5,31Z" transform="translate(0 0)" fill="#ff7c48"/>
    <path id="Path_29" data-name="Path 29" d="M259.63,29.045H263.3a.908.908,0,0,0,.787-.454l1.833-3.175,3.175-1.833a.908.908,0,0,0,.454-.787V19.13l1.833-3.176a.908.908,0,0,0,0-.908l-1.833-3.176V8.2a.908.908,0,0,0-.454-.787l-3.175-1.833-1.833-3.175a.908.908,0,0,0-.787-.454H259.63L256.454.122A.908.908,0,0,0,256,0V31a.908.908,0,0,0,.454-.122Z" transform="translate(-240.5)" fill="#f27e16"/>
    <path id="Path_30" data-name="Path 30" d="M93.165,200.453a.908.908,0,0,1-.756-.4l-2.227-3.341v2.837a.908.908,0,1,1-1.816,0v-5.837a.908.908,0,0,1,1.664-.5l2.227,3.341v-2.837a.908.908,0,1,1,1.816,0v5.837a.909.909,0,0,1-.908.908Z" transform="translate(-83.016 -181.126)" fill="#f5f5f5"/>
    <path id="Path_31" data-name="Path 31" d="M204.66,198.637h-2.01v-1.1h.616a.908.908,0,1,0,0-1.816h-.616v-1.1h2.01a.908.908,0,0,0,0-1.816h-2.918a.908.908,0,0,0-.908.908v5.837a.908.908,0,0,0,.908.908h2.918a.908.908,0,0,0,0-1.816Z" transform="translate(-188.673 -181.127)" fill="#f5f5f5"/>
    <g id="Group_38" data-name="Group 38" transform="translate(15.5 11.673)">
      <path id="Path_32" data-name="Path 32" d="M295.455,200.449a.908.908,0,0,1-.861-.621l-1.084-3.252-1.084,3.252a.908.908,0,0,1-1.743-.067l-1.459-5.837a.908.908,0,0,1,1.762-.44l.7,2.811.959-2.878a.908.908,0,0,1,1.723,0l.959,2.878.7-2.811a.908.908,0,0,1,1.762.44l-1.459,5.837a.908.908,0,0,1-.846.687Z" transform="translate(-287.187 -192.795)" fill="#e3e9ee"/>
      <path id="Path_33" data-name="Path 33" d="M256.486,192.8H256v1.816h.486a.908.908,0,1,0,0-1.816Z" transform="translate(-256 -192.8)" fill="#e3e9ee"/>
      <path id="Path_34" data-name="Path 34" d="M257.395,290.108a.908.908,0,0,0-.908-.908H256v1.816h.486A.908.908,0,0,0,257.395,290.108Z" transform="translate(-256 -283.363)" fill="#e3e9ee"/>
    </g>
  </g>
</svg>
