<svg xmlns="http://www.w3.org/2000/svg" width="23.964" height="24" viewBox="0 0 23.964 24">
  <g id="fi-rr-bell-ring_1" data-name="fi-rr-bell-ring 1" transform="translate(-0.004 0)">
    <path id="Vector" d="M20.855,15.331l-3.772,6.155a5.235,5.235,0,0,1-3.87,2.477,5.315,5.315,0,0,1-.628.037,5.212,5.212,0,0,1-3-.955A4.741,4.741,0,0,1,2.9,16.479L1.581,15.166a5.264,5.264,0,0,1,.955-8.2L8.3,3.4a8.859,8.859,0,0,1,10.327.551l1.659-1.659A1,1,0,1,1,21.7,3.706L20.046,5.364a8.951,8.951,0,0,1,.809,9.967ZM8.061,21.647l-3.719-3.72A2.721,2.721,0,0,0,4.8,21.191a2.827,2.827,0,0,0,3.256.456Zm9.921-15.6A6.887,6.887,0,0,0,9.365,5.1L3.588,8.666A3.265,3.265,0,0,0,3,13.752l7.29,7.291a3.265,3.265,0,0,0,5.093-.6l3.755-6.125a6.937,6.937,0,0,0-1.152-8.276ZM19.261,24a1,1,0,0,1-.591-1.808,8.633,8.633,0,0,0,3.315-5.407,1,1,0,1,1,1.953.43,10.7,10.7,0,0,1-4.088,6.593A1,1,0,0,1,19.261,24ZM1,5.739A1,1,0,0,1,.2,4.145,10.692,10.692,0,0,1,6.909.02a1,1,0,0,1,.4,1.96A8.636,8.636,0,0,0,1.8,5.334a1,1,0,0,1-.8.4Z" transform="translate(0.004 0)" fill="#45495e"/>
  </g>
</svg>
