<svg xmlns="http://www.w3.org/2000/svg" xmlns:xlink="http://www.w3.org/1999/xlink" width="21" height="21" viewBox="0 0 21 21">
  <defs>
    <clipPath id="clip-path">
      <rect id="Rectangle_15" data-name="Rectangle 15" width="21" height="21" transform="translate(275 37)" fill="#fff"/>
    </clipPath>
  </defs>
  <g id="Group_54" data-name="Group 54" transform="translate(-275 -37)" clip-path="url(#clip-path)">
    <path id="Path_41" data-name="Path 41" d="M295.82,37.18a.615.615,0,0,0-.87,0l-1.792,1.792a1.856,1.856,0,0,0-.348-.125l-5.569-1.376a1.853,1.853,0,0,0-1.752.486l-9.949,9.932a1.847,1.847,0,0,0,0,2.61L282.5,57.46a1.847,1.847,0,0,0,2.61,0l9.932-9.949a1.856,1.856,0,0,0,.486-1.753l-1.376-5.569a1.8,1.8,0,0,0-.125-.348l1.792-1.792A.616.616,0,0,0,295.82,37.18Zm-1.485,8.877a.619.619,0,0,1-.162.584l-9.932,9.949a.616.616,0,0,1-.87,0l-6.961-6.961a.616.616,0,0,1,0-.87l9.949-9.932a.617.617,0,0,1,.584-.162l5.231,1.291-1.482,1.482a1.846,1.846,0,1,0,.87.87l1.482-1.482Zm-4-2.519a.615.615,0,1,1,0-.87h0A.616.616,0,0,1,290.332,43.539Z" fill="#45495e"/>
    <path id="Path_42" data-name="Path 42" d="M285.111,44.409a1.846,1.846,0,1,0,0,2.61A1.848,1.848,0,0,0,285.111,44.409Zm-.87,1.74a.615.615,0,1,1,0-.87A.616.616,0,0,1,284.241,46.149Z" fill="#45495e"/>
    <path id="Path_43" data-name="Path 43" d="M285.981,50.5a1.846,1.846,0,1,0,0,2.61A1.844,1.844,0,0,0,285.981,50.5Zm-.87,1.74a.615.615,0,1,1,0-.87A.615.615,0,0,1,285.111,52.239Z" fill="#45495e"/>
    <path id="Path_44" data-name="Path 44" d="M288.768,48.256a.616.616,0,0,0-.68-.544l-7.831.87a.615.615,0,1,0,.136,1.223l7.831-.87A.616.616,0,0,0,288.768,48.256Z" fill="#45495e"/>
  </g>
</svg>
