<svg xmlns="http://www.w3.org/2000/svg" xmlns:xlink="http://www.w3.org/1999/xlink" width="141.029" height="39" viewBox="0 0 141.029 39">
  <defs>
    <clipPath id="clip-path">
      <rect id="Rectangle_8054" data-name="Rectangle 8054" width="141.029" height="39" rx="19.5" transform="translate(25.99 510.184)" fill="#fff"/>
    </clipPath>
  </defs>
  <g id="Mask_Group_1" data-name="Mask Group 1" transform="translate(-25.99 -510.184)" clip-path="url(#clip-path)">
    <g id="tag_6_" data-name="tag (6)" transform="translate(38.004 527.184)">
      <g id="Group_55488" data-name="Group 55488">
        <g id="Group_55487" data-name="Group 55487">
          <path id="Path_16803" data-name="Path 16803" d="M39,2.657A2.642,2.642,0,0,0,36.344,0a2.662,2.662,0,0,0-1.882.786c-.213.213-.6.674-.813.93a.632.632,0,0,0,.972.807c.332-.4.607-.716.735-.843a1.407,1.407,0,0,1,.994-.416h.006a1.378,1.378,0,0,1,1.381,1.388,1.407,1.407,0,0,1-.416.994,22.576,22.576,0,0,1-2.233,1.709,4,4,0,0,0-3.456-1.988H22.38a4.646,4.646,0,0,0-3.306,1.369L.58,23.231a1.98,1.98,0,0,0,0,2.8L12.971,38.422a1.982,1.982,0,0,0,2.8,0L34.265,19.927a4.645,4.645,0,0,0,1.369-3.306V7.369a4,4,0,0,0-.08-.8,24.182,24.182,0,0,0,2.661-2.032A2.662,2.662,0,0,0,39,2.657Zm-4.63,13.964a3.39,3.39,0,0,1-1,2.413L14.877,37.528a.717.717,0,0,1-1.013,0L1.474,25.137a.716.716,0,0,1,0-1.013L19.968,5.63a3.39,3.39,0,0,1,2.413-1h9.252a2.74,2.74,0,0,1,2.408,1.437c-.746.494-1.582,1.02-2.469,1.536-.028-.03-.056-.06-.085-.09a2.657,2.657,0,1,0,.688,1.2c.771-.449,1.512-.908,2.195-1.352,0,0,0,0,0,.006v9.252ZM29.046,9.675a.631.631,0,0,0,.848.28q.556-.279,1.1-.579a1.391,1.391,0,1,1-.586-1.119q-.536.292-1.086.569A.631.631,0,0,0,29.046,9.675Z" fill="#f27e16"/>
        </g>
      </g>
      <g id="Group_55490" data-name="Group 55490">
        <g id="Group_55489" data-name="Group 55489">
          <path id="Path_16804" data-name="Path 16804" d="M18.827,12.87a.632.632,0,0,0-.632.632V26.846a.632.632,0,1,0,1.264,0V13.5A.632.632,0,0,0,18.827,12.87Z" fill="#f27e16"/>
        </g>
      </g>
      <g id="Group_55492" data-name="Group 55492">
        <g id="Group_55491" data-name="Group 55491">
          <path id="Path_16805" data-name="Path 16805" d="M15.938,18.3a2.653,2.653,0,1,0,.777,1.876A2.656,2.656,0,0,0,15.938,18.3Zm-.894,2.859a1.39,1.39,0,1,1,.407-.983A1.392,1.392,0,0,1,15.044,21.157Z" fill="#f27e16"/>
        </g>
      </g>
      <g id="Group_55494" data-name="Group 55494">
        <g id="Group_55493" data-name="Group 55493">
          <path id="Path_16806" data-name="Path 16806" d="M25.469,18.3a2.652,2.652,0,1,0,0,3.753A2.657,2.657,0,0,0,25.469,18.3Zm-.894,2.859a1.389,1.389,0,1,1,0-1.966A1.392,1.392,0,0,1,24.576,21.157Z" fill="#f27e16"/>
        </g>
      </g>
    </g>
    <g id="tag_6_2" data-name="tag (6)" transform="translate(12.503 507.684)">
      <g id="Group_55488-2" data-name="Group 55488">
        <g id="Group_55487-2" data-name="Group 55487">
          <path id="Path_16803-2" data-name="Path 16803" d="M39,2.657A2.642,2.642,0,0,0,36.344,0a2.662,2.662,0,0,0-1.882.786c-.213.213-.6.674-.813.93a.632.632,0,0,0,.972.807c.332-.4.607-.716.735-.843a1.407,1.407,0,0,1,.994-.416h.006a1.378,1.378,0,0,1,1.381,1.388,1.407,1.407,0,0,1-.416.994,22.576,22.576,0,0,1-2.233,1.709,4,4,0,0,0-3.456-1.988H22.38a4.646,4.646,0,0,0-3.306,1.369L.58,23.231a1.98,1.98,0,0,0,0,2.8L12.971,38.422a1.982,1.982,0,0,0,2.8,0L34.265,19.927a4.645,4.645,0,0,0,1.369-3.306V7.369a4,4,0,0,0-.08-.8,24.182,24.182,0,0,0,2.661-2.032A2.662,2.662,0,0,0,39,2.657Zm-4.63,13.964a3.39,3.39,0,0,1-1,2.413L14.877,37.528a.717.717,0,0,1-1.013,0L1.474,25.137a.716.716,0,0,1,0-1.013L19.968,5.63a3.39,3.39,0,0,1,2.413-1h9.252a2.74,2.74,0,0,1,2.408,1.437c-.746.494-1.582,1.02-2.469,1.536-.028-.03-.056-.06-.085-.09a2.657,2.657,0,1,0,.688,1.2c.771-.449,1.512-.908,2.195-1.352,0,0,0,0,0,.006v9.252ZM29.046,9.675a.631.631,0,0,0,.848.28q.556-.279,1.1-.579a1.391,1.391,0,1,1-.586-1.119q-.536.292-1.086.569A.631.631,0,0,0,29.046,9.675Z" fill="#f27e16"/>
        </g>
      </g>
      <g id="Group_55490-2" data-name="Group 55490">
        <g id="Group_55489-2" data-name="Group 55489">
          <path id="Path_16804-2" data-name="Path 16804" d="M18.827,12.87a.632.632,0,0,0-.632.632V26.846a.632.632,0,1,0,1.264,0V13.5A.632.632,0,0,0,18.827,12.87Z" fill="#f27e16"/>
        </g>
      </g>
      <g id="Group_55492-2" data-name="Group 55492">
        <g id="Group_55491-2" data-name="Group 55491">
          <path id="Path_16805-2" data-name="Path 16805" d="M15.938,18.3a2.653,2.653,0,1,0,.777,1.876A2.656,2.656,0,0,0,15.938,18.3Zm-.894,2.859a1.39,1.39,0,1,1,.407-.983A1.392,1.392,0,0,1,15.044,21.157Z" fill="#f27e16"/>
        </g>
      </g>
      <g id="Group_55494-2" data-name="Group 55494">
        <g id="Group_55493-2" data-name="Group 55493">
          <path id="Path_16806-2" data-name="Path 16806" d="M25.469,18.3a2.652,2.652,0,1,0,0,3.753A2.657,2.657,0,0,0,25.469,18.3Zm-.894,2.859a1.389,1.389,0,1,1,0-1.966A1.392,1.392,0,0,1,24.576,21.157Z" fill="#f27e16"/>
        </g>
      </g>
    </g>
  </g>
</svg>
