<svg xmlns="http://www.w3.org/2000/svg" width="15.984" height="21" viewBox="0 0 15.984 21">
  <g id="invoice_1_1" data-name="invoice (1) 1" transform="translate(-2.508)">
    <g id="Group">
      <g id="Group-2" data-name="Group">
        <path id="Vector" d="M15.462.54a.879.879,0,0,0-.956.145L13.128,1.9A.1.1,0,0,1,13,1.9L11.122.228a.893.893,0,0,0-1.191,0L8.058,1.9a.1.1,0,0,1-.132,0L6.053.228a.893.893,0,0,0-1.191,0L2.986,1.9a.1.1,0,0,1-.132,0L1.476.685A.886.886,0,0,0,0,1.354V19.646a.888.888,0,0,0,1.478.669L2.856,19.1a.1.1,0,0,1,.131,0l1.875,1.677a.893.893,0,0,0,1.191,0L7.926,19.1a.1.1,0,0,1,.132,0l1.873,1.675a.893.893,0,0,0,1.191,0L13,19.1a.1.1,0,0,1,.132,0l1.379,1.22a.886.886,0,0,0,1.475-.669V1.354A.879.879,0,0,0,15.462.54ZM3.286,7.125H8.23a.4.4,0,0,1,0,.794H3.286a.4.4,0,0,1,0-.794ZM12.7,13.875H3.286a.4.4,0,0,1,0-.794H12.7a.4.4,0,1,1,0,.794Zm0-2.978H3.286a.4.4,0,0,1,0-.794H12.7a.4.4,0,1,1,0,.794Z" transform="translate(2.508 0)" fill="#fff"/>
      </g>
    </g>
  </g>
</svg>
