<svg xmlns="http://www.w3.org/2000/svg" width="26.167" height="23.7" viewBox="0 0 26.167 23.7">
  <g id="credit-card_21_" data-name="credit-card (21)" transform="translate(0 -24.066)">
    <path id="Path_16820" data-name="Path 16820" d="M26.123,37.66,24.137,26.4a2.822,2.822,0,0,0-3.265-2.286l-17.036,3A2.822,2.822,0,0,0,1.55,30.378l.146.828A2.822,2.822,0,0,0,0,33.79V44.947a2.822,2.822,0,0,0,2.819,2.819H19.73a2.822,2.822,0,0,0,2.819-2.819v-3.8l1.289-.227a2.819,2.819,0,0,0,2.286-3.265ZM24.4,38.884a1.273,1.273,0,0,1-.827.527l-1.022.18v-5.8a2.822,2.822,0,0,0-2.819-2.819H3.215l-.152-.861A1.281,1.281,0,0,1,4.1,28.627l17.036-3a1.28,1.28,0,0,1,1.484,1.039l1.986,11.265A1.273,1.273,0,0,1,24.4,38.884ZM19.73,46.228H2.818a1.283,1.283,0,0,1-1.281-1.281V39.484H21.011v5.464A1.283,1.283,0,0,1,19.73,46.228ZM2.818,32.509H19.73a1.283,1.283,0,0,1,1.281,1.281v.669H1.537V33.79A1.283,1.283,0,0,1,2.818,32.509ZM21.011,36v1.95H1.537V36Z" transform="translate(0 0)" fill="#45495e"/>
    <path id="Path_16821" data-name="Path 16821" d="M65.558,396.3H62.071a.769.769,0,1,0,0,1.537h3.487a.769.769,0,1,0,0-1.537Z" transform="translate(-58.161 -353.164)" fill="#f27e16"/>
  </g>
</svg>
