<svg xmlns="http://www.w3.org/2000/svg" width="20.036" height="17.531" viewBox="0 0 20.036 17.531">
  <g id="credit-card_17_" data-name="credit-card (17)" transform="translate(0 -32.004)">
    <g id="Group_55442" data-name="Group 55442" transform="translate(0 35.76)">
      <g id="Group_55441" data-name="Group 55441">
        <path id="Path_16626" data-name="Path 16626" d="M19.41,135.509a.626.626,0,0,0-.626.626v4.383H1.252V133H8.14a.626.626,0,0,0,0-1.252H1.252v-2.5H8.14a.626.626,0,1,0,0-1.252H1.252A1.253,1.253,0,0,0,0,129.248v11.27a1.253,1.253,0,0,0,1.252,1.252H18.784a1.253,1.253,0,0,0,1.252-1.252v-4.383A.626.626,0,0,0,19.41,135.509Z" transform="translate(0 -127.996)" fill="#8b959e"/>
      </g>
    </g>
    <g id="Group_55444" data-name="Group 55444" transform="translate(2.504 43.274)">
      <g id="Group_55443" data-name="Group 55443">
        <path id="Path_16627" data-name="Path 16627" d="M67.131,320h-2.5a.626.626,0,1,0,0,1.252h2.5a.626.626,0,1,0,0-1.252Z" transform="translate(-64 -319.996)" fill="#8b959e"/>
      </g>
    </g>
    <g id="Group_55446" data-name="Group 55446" transform="translate(10.018 32.004)">
      <g id="Group_55445" data-name="Group 55445">
        <path id="Path_16628" data-name="Path 16628" d="M265.638,33.932l-4.383-1.878a.639.639,0,0,0-.495,0l-4.383,1.878a.628.628,0,0,0-.378.576v2.5c0,3.445,1.274,5.459,4.7,7.431a.629.629,0,0,0,.624,0c3.424-1.967,4.7-3.981,4.7-7.431v-2.5A.627.627,0,0,0,265.638,33.932Zm-.873,3.081c0,2.891-.957,4.483-3.757,6.161-2.8-1.682-3.757-3.273-3.757-6.161V34.921l3.757-1.61,3.757,1.61Z" transform="translate(-256 -32.004)" fill="#8b959e"/>
      </g>
    </g>
    <g id="Group_55448" data-name="Group 55448" transform="translate(12.523 35.761)">
      <g id="Group_55447" data-name="Group 55447">
        <path id="Path_16629" data-name="Path 16629" d="M324.786,128.152a.63.63,0,0,0-.88.1l-1.969,2.462-.779-1.165a.626.626,0,0,0-1.042.694l1.252,1.878a.631.631,0,0,0,.495.279h.026a.626.626,0,0,0,.49-.235l2.5-3.131A.627.627,0,0,0,324.786,128.152Z" transform="translate(-320.011 -128.016)" fill="#8b959e"/>
      </g>
    </g>
  </g>
</svg>
