<svg xmlns="http://www.w3.org/2000/svg" width="24.394" height="24.394" viewBox="0 0 24.394 24.394">
  <g id="point_1_" data-name="point (1)" transform="translate(0 0)">
    <path id="Path_16815" data-name="Path 16815" d="M239.569,229.006h-.8c0,1.144,0,.7,0,1.639l.791,0a.818.818,0,1,0,0-1.636Z" transform="translate(-227.398 -218.095)" fill="#5b6fec"/>
    <path id="Path_16816" data-name="Path 16816" d="M126.753,117.537,123.97,114.7l-2.761,2.832a.715.715,0,0,1-.182.136l-3.663,1.9,1.929,3.454a.717.717,0,0,1,.085.261l.514,4.177,3.934-.87a.712.712,0,0,1,.309,0l3.914.87.534-4.18a.71.71,0,0,1,.083-.255l1.911-3.457-3.645-1.9A.718.718,0,0,1,126.753,117.537Zm-2.81,5.676-.8,0v1.648a.715.715,0,0,1-1.429,0v-5.428a.718.718,0,0,1,.715-.717h1.512a2.247,2.247,0,1,1,0,4.494Z" transform="translate(-111.772 -109.238)" fill="#5b6fec"/>
    <path id="Path_16817" data-name="Path 16817" d="M20.819,3.574a12.194,12.194,0,1,0,0,17.245A12.187,12.187,0,0,0,20.819,3.574Zm-.409,6.81-2.2,3.978L17.6,19.184a.715.715,0,0,1-.864.607l-4.523-1.005L7.661,19.791a.715.715,0,0,1-.864-.61L6.2,14.363l-2.22-3.975A.715.715,0,0,1,4.279,9.4L8.494,7.217l3.191-3.273a.714.714,0,0,1,1.021,0l3.216,3.275,4.194,2.188a.715.715,0,0,1,.295.979Z" transform="translate(0 0)" fill="#5b6fec"/>
  </g>
</svg>
