<svg id="conversation_4_" data-name="conversation (4)" xmlns="http://www.w3.org/2000/svg" width="26" height="26" viewBox="0 0 26 26">
  <g id="Group_55822" data-name="Group 55822" transform="translate(0 8.836)">
    <g id="Group_55821" data-name="Group 55821">
      <path id="Path_20938" data-name="Path 20938" d="M17.57,181.363a.508.508,0,0,0-.508.508v3.5a2.542,2.542,0,0,1-2.539,2.539H9.041a.508.508,0,0,0-.508.507v1.01L7.32,188.219a.508.508,0,0,0-.466-.305h-3.3a2.542,2.542,0,0,1-2.539-2.539v-7.82a2.542,2.542,0,0,1,2.539-2.539H8.684a.508.508,0,0,0,0-1.016H3.555A3.559,3.559,0,0,0,0,177.555v7.82a3.559,3.559,0,0,0,3.555,3.555h3.04l2.086,2.086a.508.508,0,0,0,.867-.359V188.93h4.975a3.559,3.559,0,0,0,3.555-3.555v-3.5A.508.508,0,0,0,17.57,181.363Z" transform="translate(0 -174)"/>
    </g>
  </g>
  <g id="Group_55824" data-name="Group 55824" transform="translate(9.953)">
    <g id="Group_55823" data-name="Group 55823">
      <path id="Path_20939" data-name="Path 20939" d="M204.666,0h-1.285a7.381,7.381,0,1,0,0,14.762h1.285a7.4,7.4,0,0,0,1.873-.24l1.9,1.9a.508.508,0,0,0,.867-.359V13.122a7.451,7.451,0,0,0,1.94-2.392,7.3,7.3,0,0,0,.8-3.349A7.389,7.389,0,0,0,204.666,0Zm3.825,12.469a.508.508,0,0,0-.2.406v1.96l-1.243-1.242a.508.508,0,0,0-.508-.126,6.367,6.367,0,0,1-1.872.28h-1.285a6.365,6.365,0,1,1,0-12.73h1.285a6.365,6.365,0,0,1,3.825,11.453Z" transform="translate(-196)"/>
    </g>
  </g>
  <g id="Group_55826" data-name="Group 55826" transform="translate(15.969 3.558)">
    <g id="Group_55825" data-name="Group 55825">
      <path id="Path_20940" data-name="Path 20940" d="M318.757,72.062a2.155,2.155,0,0,0-1.993-1.993,2.133,2.133,0,0,0-1.618.573,2.157,2.157,0,0,0-.683,1.572.508.508,0,0,0,1.016,0,1.134,1.134,0,0,1,1.216-1.131,1.135,1.135,0,0,1,.168,2.238.961.961,0,0,0-.757.942v1.22a.508.508,0,1,0,1.016,0V74.3A2.139,2.139,0,0,0,318.757,72.062Z" transform="translate(-314.462 -70.063)" fill="#f27e16"/>
    </g>
  </g>
  <g id="Group_55828" data-name="Group 55828" transform="translate(17.611 10.478)">
    <g id="Group_55827" data-name="Group 55827">
      <path id="Path_20941" data-name="Path 20941" d="M347.667,206.479a.508.508,0,1,0,.149.359A.512.512,0,0,0,347.667,206.479Z" transform="translate(-346.8 -206.33)"/>
    </g>
  </g>
  <g id="Group_55830" data-name="Group 55830" transform="translate(2.742 15.742)">
    <g id="Group_55829" data-name="Group 55829">
      <path id="Path_20942" data-name="Path 20942" d="M65.223,310H54.508a.508.508,0,0,0,0,1.016H65.223a.508.508,0,0,0,0-1.016Z" transform="translate(-54 -310)"/>
    </g>
  </g>
  <g id="Group_55832" data-name="Group 55832" transform="translate(13.457 18.586)">
    <g id="Group_55831" data-name="Group 55831">
      <path id="Path_20943" data-name="Path 20943" d="M265.867,366.149a.507.507,0,1,0,.149.359A.512.512,0,0,0,265.867,366.149Z" transform="translate(-265 -366)"/>
    </g>
  </g>
  <g id="Group_55834" data-name="Group 55834" transform="translate(2.742 18.586)">
    <g id="Group_55833" data-name="Group 55833">
      <path id="Path_20944" data-name="Path 20944" d="M63.225,366H54.508a.508.508,0,0,0,0,1.016h8.717a.508.508,0,0,0,0-1.016Z" transform="translate(-54 -366)"/>
    </g>
  </g>
  <g id="Group_55836" data-name="Group 55836" transform="translate(2.742 12.898)">
    <g id="Group_55835" data-name="Group 55835">
      <path id="Path_20945" data-name="Path 20945" d="M61.922,254H54.508a.508.508,0,1,0,0,1.016h7.414a.508.508,0,0,0,0-1.016Z" transform="translate(-54 -254)"/>
    </g>
  </g>
</svg>
