<svg xmlns="http://www.w3.org/2000/svg" width="17" height="17" viewBox="0 0 17 17">
  <g id="Layer_2" data-name="Layer 2" transform="translate(-1 -1)">
    <path id="Path_17908" data-name="Path 17908" d="M7.384,13.768a6.384,6.384,0,1,1,6.384-6.384,6.384,6.384,0,0,1-6.384,6.384Zm0-11.608a5.223,5.223,0,1,0,5.223,5.223A5.223,5.223,0,0,0,7.384,2.161Z"/>
    <path id="Path_17909" data-name="Path 17909" d="M24.3,25.12,18.36,19.188l.818-.818L25.116,24.3a.579.579,0,0,1-.818.818Z" transform="translate(-7.285 -7.289)"/>
    <path id="Path_17910" data-name="Path 17910" d="M7.44,13.671a.58.58,0,0,1-.859.168A4,4,0,0,1,5.357,9.434a.579.579,0,0,1,1.08.418,2.722,2.722,0,0,0,.847,3.093.58.58,0,0,1,.157.725Z" transform="translate(-1.734 -3.385)"/>
  </g>
</svg>
