<svg xmlns="http://www.w3.org/2000/svg" width="26" height="20.372" viewBox="0 0 26 20.372">
  <g id="friends_2_1" data-name="friends (2) 1" transform="translate(0 -2.814)">
    <g id="Group">
      <g id="Group-2" data-name="Group">
        <path id="Vector" d="M4.626,0A4.775,4.775,0,0,0,0,4.9a4.776,4.776,0,0,0,4.626,4.9A4.775,4.775,0,0,0,9.251,4.9,4.775,4.775,0,0,0,4.626,0Zm0,8.282a3.254,3.254,0,0,1-3.1-3.38,3.253,3.253,0,0,1,3.1-3.379A3.253,3.253,0,0,1,7.727,4.9,3.254,3.254,0,0,1,4.626,8.282Z" transform="translate(3.786 2.814)" fill="#fff"/>
      </g>
    </g>
    <g id="Group-3" data-name="Group">
      <g id="Group-4" data-name="Group">
        <path id="Vector-2" data-name="Vector" d="M3.939,0A4.1,4.1,0,0,0,0,4.237,4.309,4.309,0,0,0,1.17,7.182,3.843,3.843,0,0,0,3.977,8.409h.032A4.1,4.1,0,0,0,7.948,4.172,4.1,4.1,0,0,0,3.939,0ZM4,6.886a2.335,2.335,0,0,1-1.721-.752,2.79,2.79,0,0,1-.752-1.909,2.577,2.577,0,0,1,2.429-2.7h.019A2.579,2.579,0,0,1,6.425,4.184,2.577,2.577,0,0,1,4,6.886Z" transform="translate(14.904 3.512)" fill="#fff"/>
      </g>
    </g>
    <g id="Group-5" data-name="Group">
      <g id="Group-6" data-name="Group">
        <path id="Vector-3" data-name="Vector" d="M26,7.122A7.118,7.118,0,0,0,13.528,2.427,8.407,8.407,0,0,0,0,9.1v1.413H16.822V9.1q0-.34-.027-.674H26ZM1.524,8.988A6.885,6.885,0,0,1,12.65,3.672,7,7,0,0,1,13.786,4.8a6.851,6.851,0,0,1,1.48,3.629q.027.279.032.564ZM16.531,6.9A8.408,8.408,0,0,0,14.647,3.46,5.6,5.6,0,0,1,24.473,6.9Z" transform="translate(0 12.674)" fill="#fff"/>
      </g>
    </g>
  </g>
</svg>
