<svg id="milk-box_1" data-name="milk-box 1" xmlns="http://www.w3.org/2000/svg" width="215" height="215" viewBox="0 0 215 215">
  <g id="Group">
    <path id="Vector" d="M90.161,48.548,97.1,39.3V0H0V97.1H90.161Z" transform="translate(3.468 76.29)" fill="#ffcf2d"/>
    <path id="Vector-2" data-name="Vector" d="M62.419,62.419H0V0H62.419Z" transform="translate(104.032 135.242)" fill="#ffcf2d"/>
  </g>
  <path id="Vector-3" data-name="Vector" d="M197.661,96.1V72.823H145.645V20.806H76.29V0H13.871V20.806H0V215H215V123.843Zm-3.468,7.539,11.079,17.731H183.111Zm0,95.457,8.968,8.968H185.226Zm3.468-6.339v-50.58h-6.935v50.58l-10.4,10.4V128.306h10.4v6.935h6.935v-6.935h10.4v74.855Zm-6.935-99.129H117.9V79.758h72.823ZM124.839,72.823V65.887H117.9v6.935h-6.935V95.942l-6.935,9.248V32.645L117.9,46.516V58.952h6.935V46.516L138.71,32.645V72.823Zm-3.468-32.645L108.936,27.742h24.871ZM69.355,20.806H62.419V6.935h6.935Zm-34.677,0V6.935h6.935V20.806ZM48.548,6.935h6.935V20.806H48.548Zm-27.742,0h6.935V20.806H20.806ZM6.935,208.065V27.742H97.1v86.694l-6.935,9.248v84.381ZM97.1,125.993l19.073-25.429h71.768l-14.551,23.279v84.221H97.1Z" fill="#fff"/>
  <path id="Vector-4" data-name="Vector" d="M24.968,14.8,13.871,0,2.771,14.8a13.87,13.87,0,1,0,24.971,8.316A13.968,13.968,0,0,0,24.968,14.8Zm-11.1,15.255a6.942,6.942,0,0,1-6.935-6.935,7.028,7.028,0,0,1,1.384-4.161l5.552-7.4,5.548,7.393a7.026,7.026,0,0,1,1.387,4.165A6.942,6.942,0,0,1,13.871,30.055Z" transform="translate(121.371 146.8)" fill="#fff"/>
  <path id="Vector-5" data-name="Vector" d="M0,0H62.419V6.935H0Z" transform="translate(20.806 93.629)" fill="#fff"/>
  <path id="Vector-6" data-name="Vector" d="M0,34.677H62.419V0H0ZM6.935,6.935H55.484V27.742H6.935Z" transform="translate(20.806 107.5)" fill="#fff"/>
  <path id="Vector-7" data-name="Vector" d="M0,0H62.419V6.935H0Z" transform="translate(20.806 149.113)" fill="#fff"/>
</svg>
