<svg xmlns="http://www.w3.org/2000/svg" width="344.489" height="362" viewBox="0 0 344.489 362">
  <g id="bread_3_1" data-name="bread (3) 1" transform="translate(-8.755)">
    <path id="Vector" d="M325.186,80.792C317.987,37,258.694,0,195.717,0H184.039C143.092,0,100.614,16.746,75.9,42.577L0,118.481l8.256,8.256,76-76c22.707-23.729,61.874-39.062,99.785-39.062h11.678C252.1,11.678,307,44.6,313.6,82.228V93.415c0,8.869-4.023,13.272-4.128,13.388l-62.522,62.516h-9.26v25.772l52.549-52.549V245.224c0,7.532-7.2,16.436-9.967,19.227l-75.9,75.9,8.256,8.256,75.9-75.9c1.366-1.366,13.388-13.78,13.388-27.483V130.865l15.806-15.806c.777-.771,7.55-7.941,7.55-21.644V81.737Z" transform="translate(27.977)" fill="#fff"/>
    <path id="Vector-2" data-name="Vector" d="M204.358,286.1H64.227c-16.571,0-35.033-11.993-35.033-29.194V127.823C10.8,124.734,0,112.193,0,93.421L.058,80.914C6.212,37.812,66.218,0,128.454,0h11.678c62.236,0,122.241,37.812,128.4,80.914l.058.829V93.421c0,18.772-10.8,31.313-29.194,34.4V251.069C239.391,272.024,221.273,286.1,204.358,286.1Z" transform="translate(8.755 75.899)" fill="#ffcf2d"/>
    <g id="Group">
      <path id="Vector-3" data-name="Vector" d="M0,0H11.678V46.71H0Z" transform="translate(67.143 216.03)" fill="#fff"/>
      <path id="Vector-4" data-name="Vector" d="M0,0H11.678V11.678H0Z" transform="translate(67.143 280.257)" fill="#fff"/>
      <path id="Vector-5" data-name="Vector" d="M0,0H11.678V11.678H0Z" transform="translate(207.275 280.257)" fill="#fff"/>
      <path id="Vector-6" data-name="Vector" d="M0,0H11.678V23.355H0Z" transform="translate(207.275 303.612)" fill="#fff"/>
      <path id="Vector-7" data-name="Vector" d="M87.582,64.227C87.582,31.74,32.166,0,0,0V11.678c36.884,0,75.9,34.175,75.9,52.549,0,10.662-8.968,11.631-11.724,11.678l.047,11.678C73.61,87.582,87.582,81.364,87.582,64.227Z" transform="translate(166.403 99.254)" fill="#fff"/>
    </g>
  </g>
</svg>
