<svg xmlns="http://www.w3.org/2000/svg" width="51" height="43.74" viewBox="0 0 51 43.74">
  <g id="shining_1" data-name="shining 1" transform="translate(0 47.37)">
    <path id="SVGCleanerId_0" data-name="SVGCleanerId 0" d="M33.975-17.606a22.749,22.749,0,0,0-3.177.811C23.431-14.317,19.267-8.3,17.9-.551a.67.67,0,0,1-1.319,0c-1.592-9-6.892-15.37-16.033-17.067a.67.67,0,0,1,0-1.317C9.6-20.609,14.994-26.964,16.581-35.9a.668.668,0,0,1,.66-.553.67.67,0,0,1,.659.554c.808,4.606,3.076,10.863,9.3,14.517a20.766,20.766,0,0,0,6.781,2.454.67.67,0,0,1,.549.659A.67.67,0,0,1,33.975-17.606Z" transform="translate(16.475 -5.163)" fill="#f4a32c"/>
    <g id="Group">
      <path id="SVGCleanerId_0_1" data-name="SVGCleanerId 0 1" d="M33.975-17.606a22.749,22.749,0,0,0-3.177.811C23.431-14.317,19.267-8.3,17.9-.551a.67.67,0,0,1-1.319,0c-1.592-9-6.892-15.37-16.033-17.067a.67.67,0,0,1,0-1.317C9.6-20.609,14.994-26.964,16.581-35.9a.668.668,0,0,1,.66-.553.67.67,0,0,1,.659.554c.808,4.606,3.076,10.863,9.3,14.517a20.766,20.766,0,0,0,6.781,2.454.67.67,0,0,1,.549.659A.67.67,0,0,1,33.975-17.606Z" transform="translate(16.475 -5.163)" fill="#f4a32c"/>
    </g>
    <path id="Vector" d="M7.544,0a20.528,20.528,0,0,0-7-2.609.67.67,0,0,1,0-1.317C9.6-5.6,14.994-11.956,16.581-20.887a.668.668,0,0,1,.66-.553.67.67,0,0,1,.659.554,23.886,23.886,0,0,0,3.109,8.445C18.614-5.778,14.04-1.631,7.544,0Z" transform="translate(16.475 -20.172)" fill="#e89528"/>
    <path id="Vector-2" data-name="Vector" d="M12.067-5.961A7.953,7.953,0,0,0,6.9-.471.674.674,0,0,1,6.259,0,.67.67,0,0,1,5.62-.471,8.055,8.055,0,0,0,.452-5.959a.67.67,0,0,1,0-1.267,8.051,8.051,0,0,0,5.169-5.491.673.673,0,0,1,.64-.47.67.67,0,0,1,.639.472,8.209,8.209,0,0,0,3.178,4.5h0c1.643,1.125,2.449.8,2.448,1.614A.669.669,0,0,1,12.067-5.961Z" transform="translate(8.963 -34.182)" fill="#f7e7a1"/>
    <path id="Vector-3" data-name="Vector" d="M3.122-.024C3.1-.017,3.085-.008,3.067,0A7.908,7.908,0,0,0,.452-1.475a.67.67,0,0,1,0-1.267A8.051,8.051,0,0,0,5.621-8.232a.673.673,0,0,1,.64-.47C7.2-8.7,6.7-7.574,8.274-5.464A8.036,8.036,0,0,1,3.122-.024Z" transform="translate(8.964 -38.667)" fill="#ead786"/>
    <path id="Vector-4" data-name="Vector" d="M12.067-5.961A7.954,7.954,0,0,0,6.9-.471.674.674,0,0,1,6.259,0,.67.67,0,0,1,5.62-.471,8.056,8.056,0,0,0,.452-5.959a.67.67,0,0,1,0-1.267,8.051,8.051,0,0,0,5.169-5.49.673.673,0,0,1,.64-.47.67.67,0,0,1,.639.472,8.02,8.02,0,0,0,3.178,4.5c1.638,1.122,2.449.8,2.448,1.614A.67.67,0,0,1,12.067-5.961Z" transform="translate(0.001 -3.63)" fill="#f4d44e"/>
    <path id="Vector-5" data-name="Vector" d="M2.864,0C1.018-1.476,0-1.063,0-1.94a.669.669,0,0,1,.453-.634,8.051,8.051,0,0,0,5.169-5.49.673.673,0,0,1,.64-.47c.9,0,.465,1.048,1.887,3.067A8.1,8.1,0,0,1,2.864,0Z" transform="translate(0 -8.282)" fill="#e8c842"/>
  </g>
</svg>
