<svg xmlns="http://www.w3.org/2000/svg" width="25" height="25.938" viewBox="0 0 25 25.938">
  <g id="headset_1_" data-name="headset (1)" transform="translate(-9.133 0.013)">
    <g id="Group_55550" data-name="Group 55550" transform="translate(9.133 11.719)">
      <g id="Group_55549" data-name="Group 55549">
        <path id="Path_16825" data-name="Path 16825" d="M14.447,231.451a1.6,1.6,0,0,0-1.595,1.595v.3H10.6a1.466,1.466,0,0,0-1.465,1.465v3.931a1.466,1.466,0,0,0,1.465,1.465h2.254v.3a1.595,1.595,0,0,0,3.189,0v-7.462A1.6,1.6,0,0,0,14.447,231.451ZM10.6,239.428a.686.686,0,0,1-.685-.685v-3.931a.686.686,0,0,1,.685-.685h2.254v5.3Zm4.664,1.08a.815.815,0,1,1-1.631,0v-7.462a.815.815,0,1,1,1.631,0Z" transform="translate(-9.133 -231.451)" fill="#45495e"/>
      </g>
    </g>
    <g id="Group_55552" data-name="Group 55552" transform="translate(21.356 11.719)">
      <g id="Group_55551" data-name="Group 55551">
        <path id="Path_16826" data-name="Path 16826" d="M261.836,233.346h-2.254v-.3a1.595,1.595,0,1,0-3.189,0v7.462a1.595,1.595,0,0,0,3.189,0v-.3h1.066v1.324a2.589,2.589,0,0,1-2.586,2.586h-4.473a1.153,1.153,0,0,0-1.084-.764h-.83a1.151,1.151,0,0,0,0,2.3h.83a1.153,1.153,0,0,0,1.082-.759h4.475a3.369,3.369,0,0,0,3.366-3.366v-1.324h.409a1.466,1.466,0,0,0,1.465-1.465v-3.931A1.466,1.466,0,0,0,261.836,233.346Zm-3.034,7.161a.815.815,0,1,1-1.631,0v-7.462a.815.815,0,1,1,1.631,0Zm-6.3,4.369h-.83a.372.372,0,0,1,0-.744h.83a.372.372,0,1,1,0,.744Zm10.017-6.135a.686.686,0,0,1-.685.685h-2.254v-5.3h2.254a.686.686,0,0,1,.685.685Z" transform="translate(-250.523 -231.451)" fill="#f27e16"/>
      </g>
    </g>
    <g id="Group_55554" data-name="Group 55554" transform="translate(11.686 0.487)">
      <g id="Group_55553" data-name="Group 55553">
        <path id="Path_16827" data-name="Path 16827" d="M69.5,29.363A9.958,9.958,0,0,0,59.55,39.31V39.8a.39.39,0,0,0,.779,0V39.31a9.168,9.168,0,0,1,18.336,0V39.8a.39.39,0,0,0,.779,0V39.31A9.958,9.958,0,0,0,69.5,29.363Z" transform="translate(-59.55 -29.363)" fill="#45495e" stroke="#45495e" stroke-width="1"/>
      </g>
    </g>
  </g>
</svg>
