<svg xmlns="http://www.w3.org/2000/svg" width="20" height="24.001" viewBox="0 0 20 24.001">
  <g id="fi-rr-shield-interrogation_1" data-name="fi-rr-shield-interrogation 1" transform="translate(-2 0.001)">
    <path id="Vector" d="M10,15a1,1,0,0,1-1-1,3.953,3.953,0,0,1,1.963-3.195,1.994,1.994,0,0,0,1-2.124,2.024,2.024,0,0,0-1.6-1.6A2,2,0,0,0,8,9.053a1,1,0,0,1-2,0,4,4,0,1,1,5.929,3.505A1.987,1.987,0,0,0,11,14a1,1,0,0,1-1,1Zm.793,8.76C12.953,22.893,20,19.48,20,12.044V6.873a4.993,4.993,0,0,0-3.426-4.746L10.315.052a.985.985,0,0,0-.63,0L3.426,2.127A4.993,4.993,0,0,0,0,6.873v5.171c0,6.562,7.005,10.576,9.153,11.65A2.331,2.331,0,0,0,10,24,2.242,2.242,0,0,0,10.793,23.761ZM15.944,4.025A3,3,0,0,1,18,6.873v5.171c0,6.183-6.087,9.111-7.953,9.861C8.159,20.961,2,17.46,2,12.044V6.873A3,3,0,0,1,4.056,4.025L10,2.055ZM10,17a1,1,0,1,0,.707.293A1,1,0,0,0,10,17Z" transform="translate(2 -0.001)" fill="#fff"/>
  </g>
</svg>
