<svg xmlns="http://www.w3.org/2000/svg" width="15.75" height="21" viewBox="0 0 15.75 21">
  <g id="fi-rr-user_2" data-name="fi-rr-user 2" transform="translate(-2.625)">
    <path id="Vector" d="M5.25,10.5A5.255,5.255,0,1,0,1.539,8.961,5.25,5.25,0,0,0,5.25,10.5Zm0-8.75A3.5,3.5,0,1,1,2.775,2.775,3.5,3.5,0,0,1,5.25,1.75Z" transform="translate(5.25 0)"/>
    <path id="Vector-2" data-name="Vector" d="M7.875,0A7.884,7.884,0,0,0,0,7.875a.875.875,0,1,0,1.75,0,6.125,6.125,0,0,1,12.25,0,.875.875,0,1,0,1.75,0A7.884,7.884,0,0,0,7.875,0Z" transform="translate(2.625 12.25)"/>
  </g>
</svg>
